<?xml version="1.0" encoding="UTF-8"?>
<svg width="512px" height="512px" viewBox="0 0 512 512" version="1.1" xmlns="http://www.w3.org/2000/svg" xmlns:xlink="http://www.w3.org/1999/xlink">
    <title>check-mark</title>
    <g id="User-icons" stroke="none" stroke-width="1" fill="none" fill-rule="evenodd">
        <g id="check-mark" fill="#3EB593" fill-rule="nonzero">
            <path d="M369.164062,174.769531 C376.976563,182.582031 376.976563,195.246094 369.164062,203.054688 L234.992188,337.230469 C227.179688,345.039062 214.519531,345.039062 206.707031,337.230469 L142.835938,273.355469 C135.023438,265.546875 135.023438,252.882812 142.835938,245.074219 C150.644531,237.261719 163.308594,237.261719 171.117188,245.074219 L220.847656,294.804688 L340.878906,174.769531 C348.691406,166.960938 361.355469,166.960938 369.164062,174.769531 L369.164062,174.769531 Z M512,256 C512,397.503906 397.484375,512 256,512 C114.496094,512 0,397.484375 0,256 C0,114.496094 114.515625,0 256,0 C397.503906,0 512,114.515625 512,256 Z M472,256 C472,136.605469 375.378906,40 256,40 C136.605469,40 40,136.621094 40,256 C40,375.394531 136.621094,472 256,472 C375.394531,472 472,375.378906 472,256 Z" id="Shape"></path>
        </g>
    </g>
</svg>